<svg version="1.1" xmlns="http://www.w3.org/2000/svg" viewBox="0 0 728.0000915527344 258.40000915527344" width="1456.0001831054688" height="516.8000183105469">
  <!-- svg-source:excalidraw -->
  
  <g transform="translate(10 37.19996643066406) rotate(0 103.60000610351562 44.00000762939453)"><path d="M12 0 M12 0 C64.68834035484092 -1.3089937954384605, 116.95892148788963 -1.229739835782699, 195.20001220703125 0 C202.9142167031765 -0.43476657271385194, 207.7827807366848 3.6196949064731596, 207.20001220703125 12 M207.20001220703125 12 C207.72616166059242 36.81212752286027, 207.53884457532632 61.17175346858164, 207.20001220703125 76.00001525878906 C206.5087078154087 83.64572724699974, 203.76339512467385 87.8568327844143, 195.20001220703125 88.00001525878906 M195.20001220703125 88.00001525878906 C130.7335662923602 87.96606018275753, 64.88708793964933 88.37741253108517, 12 88.00001525878906 C4.092389577627182 88.53731690049172, 0.0875466287136078 84.3633298933506, 0 76.00001525878906 M0 76.00001525878906 C0.36867056278305205 57.01238786916748, 0.027709678688813716 38.80374789319068, 0 12 C-0.5454629838466645 3.5563067376613615, 4.082533651590348 -0.018104082345962526, 12 0" stroke="#e9e9e9" stroke-width="1.575" fill="none"></path></g><g transform="translate(264.4000549316406 160.39999389648438) rotate(0 103.60000610351562 44.00000762939453)"><path d="M12 0 M12 0 C56.49726835557536 0.10326155341497545, 101.64286853807599 -0.1844427236235988, 195.20001220703125 0 C203.4708692610264 -0.6591466009616852, 207.13443718552588 3.4281369149684906, 207.20001220703125 12 M207.20001220703125 12 C206.9294858869377 33.77595963506211, 206.48540343607098 56.6481587355993, 207.20001220703125 76.00001525878906 C207.2289799630642 83.90256672501565, 203.26183843016625 88.41363220810891, 195.20001220703125 88.00001525878906 M195.20001220703125 88.00001525878906 C156.33801705680656 87.36349025854382, 117.56969884916879 87.44007431158337, 12 88.00001525878906 C3.5907524168491363 88.40992898344993, -0.25459689497947696 83.95329770445824, 0 76.00001525878906 M0 76.00001525878906 C0.13562594241913076 62.37064338911076, 0.31969900913055654 49.38616420603792, 0 12 C0.6186884820461274 4.7117168486118315, 4.083999341726303 0.3322244703769684, 12 0" stroke="#e9e9e9" stroke-width="1.575" fill="none"></path></g><g transform="translate(510.8000793457031 10) rotate(0 103.60000610351562 44.00000762939453)"><path d="M12 0 M12 0 C58.51280854941638 -0.6718585646559605, 107.25904100539748 0.23330481882792634, 195.20001220703125 0 C202.71997327208518 -0.7594287812709809, 206.41331147551537 3.5689889967441557, 207.20001220703125 12 M207.20001220703125 12 C207.64344122023513 26.910589580033946, 207.48652574629716 41.78664537925467, 207.20001220703125 76.00001525878906 C206.6753114759922 84.17102727293968, 203.72094727158546 88.45651635527611, 195.20001220703125 88.00001525878906 M195.20001220703125 88.00001525878906 C127.1700827289003 88.46951272576561, 60.02355369694586 88.16790731042137, 12 88.00001525878906 C4.199372953176498 87.93183804154395, 0.2175463616847992 84.38044014573097, 0 76.00001525878906 M0 76.00001525878906 C0.7107631146363997 54.91035419875608, 0.2800866543702864 33.009194979552944, 0 12 C-0.4790119111537934 3.216036695241928, 4.507316023111343 0.6517516076564789, 12 0" stroke="#e9e9e9" stroke-width="1.575" fill="none"></path></g></svg>